<svg xmlns="http://www.w3.org/2000/svg" version="1.1" xmlns:xlink="http://www.w3.org/1999/xlink" xmlns:svgjs="http://svgjs.dev/svgjs" width="2000" height="919" viewBox="0 0 2000 919"><g transform="matrix(1,0,0,1,-1.2121212121212466,0.3504873021597632)"><svg viewBox="0 0 396 182" data-background-color="#ffffff" preserveAspectRatio="xMidYMid meet" height="919" width="2000" xmlns="http://www.w3.org/2000/svg" xmlns:xlink="http://www.w3.org/1999/xlink"><g id="tight-bounds" transform="matrix(1,0,0,1,0.2400000000000091,-0.06941097822968345)"><svg viewBox="0 0 395.52 182.13882195645937" height="182.13882195645937" width="395.52"><g><svg viewBox="0 0 395.52 182.13882195645937" height="182.13882195645937" width="395.52"><g><svg viewBox="0 0 395.52 182.13882195645937" height="182.13882195645937" width="395.52"><g id="textblocktransform"><svg viewBox="0 0 395.52 182.13882195645937" height="182.13882195645937" width="395.52" id="textblock"><g><svg viewBox="0 0 395.52 134.03831426804558" height="134.03831426804558" width="395.52"><rect width="395.52" height="134.03831426804558" x="0" y="0" opacity="1" fill="#0b282c" data-fill-palette-color="tertiary"></rect><g transform="matrix(1,0,0,1,23.461705032,23.461705032)"><svg width="348.596589936" viewBox="2.6 -31.3 127.24000000000001 31.8" height="87.11490420404557" data-palette-color="#ffffff"><path d="M3.55 0L3.55-27.25 2.6-30Q3.75-30.55 5.53-30.93 7.3-31.3 9.35-31.3L9.35-31.3Q13.6-31.3 16.3-29.18 19-27.05 20.3-23.5 21.6-19.95 21.6-15.65L21.6-15.65Q21.6-11.05 20.2-7.53 18.8-4 15.7-2 12.6 0 7.5 0L7.5 0 3.55 0ZM7.05-27.85L7.05-3.2 8.05-3.2Q11.8-3.2 14-4.83 16.2-6.45 17.15-9.25 18.1-12.05 18.1-15.65L18.1-15.65Q18.1-21.8 15.7-24.95 13.3-28.1 9.4-28.1L9.4-28.1Q8.05-28.1 7.05-27.85L7.05-27.85ZM50.95-30.8L50.95-27.6 40.55-27.6 40.55-19.35 47.05-19.35 47.05-16.15 40.55-16.15 40.55 0 37.05 0 37.05-27.6 36.05-30.8 50.95-30.8ZM53.14 0L53.14-16.65 51.69-18.9Q53.89-20.75 56.57-21.68 59.24-22.6 61.99-23L61.99-23 62.54-20Q60.14-19.65 58.69-19.18 57.24-18.7 56.34-18.2L56.34-18.2 56.34 0 53.14 0ZM67.04-19.85L67.29-23Q69.39-23 71.49-22.63 73.59-22.25 75.34-21.33 77.09-20.4 78.14-18.68 79.19-16.95 79.19-14.25L79.19-14.25 79.19-4.25 80.54-1.95Q78.24-0.65 75.97-0.08 73.69 0.5 71.79 0.5L71.79 0.5Q69.34 0.5 67.84-0.13 66.34-0.75 65.49-1.55L65.49-1.55Q64.69-2.4 64.09-3.68 63.49-4.95 63.49-6.55L63.49-6.55Q63.49-9.05 64.54-10.68 65.59-12.3 67.37-13.2 69.14-14.1 71.37-14.48 73.59-14.85 75.99-14.85L75.99-14.85Q75.89-16.5 75.02-17.48 74.14-18.45 72.82-18.95 71.49-19.45 69.99-19.63 68.49-19.8 67.04-19.85L67.04-19.85ZM75.99-3.35L75.99-11.85Q74.79-11.85 73.24-11.7 71.69-11.55 70.24-11.08 68.79-10.6 67.84-9.6 66.89-8.6 66.89-6.9L66.89-6.9Q66.89-5.75 67.24-4.98 67.59-4.2 68.04-3.8L68.04-3.8Q68.84-3 69.87-2.75 70.89-2.5 71.89-2.5L71.89-2.5Q73.09-2.5 74.09-2.75 75.09-3 75.99-3.35L75.99-3.35ZM85.39-17.25L83.99-19.7Q86.74-21.35 90.09-22.18 93.44-23 97.09-23L97.09-23Q97.99-23 99.64-22.85 101.29-22.7 103.11-22.15 104.94-21.6 106.29-20.3L106.29-20.3Q108.19-18.5 108.56-16.23 108.94-13.95 108.94-11.9L108.94-11.9 108.94 0 105.79 0 105.79-10.15Q105.79-11.4 105.74-12.88 105.69-14.35 105.34-15.73 104.99-17.1 104.04-18.05L104.04-18.05Q103.14-19 101.59-19.5 100.04-20 98.79-20L98.79-20 98.79 0 95.59 0 95.59-20Q93.84-20 92.01-19.68 90.19-19.35 88.59-18.65L88.59-18.65 88.59 0 85.39 0 85.39-17.25ZM129.84-10.35L117.64-10.35 117.64-3.8Q118.79-3 120.14-2.75 121.49-2.5 122.64-2.5L122.64-2.5Q124.79-2.5 126.51-2.98 128.24-3.45 129.84-4.55L129.84-4.55 129.84-1.2Q128.34-0.3 126.56 0.1 124.79 0.5 122.74 0.5L122.74 0.5Q119.54 0.5 117.11-0.4 114.69-1.3 112.69-3.05L112.69-3.05 114.44-5.1 114.44-13.25Q114.44-14.2 114.46-15.5 114.49-16.8 114.89-18.2 115.29-19.6 116.34-20.8L116.34-20.8Q117.69-22.3 119.26-22.65 120.84-23 122.09-23L122.09-23Q123.39-23 124.96-22.65 126.54-22.3 127.84-20.8L127.84-20.8Q128.89-19.6 129.31-18.2 129.74-16.8 129.79-15.5 129.84-14.2 129.84-13.25L129.84-13.25 129.84-10.35ZM117.64-13.35L126.34-13.35Q126.34-14.45 126.24-15.85 126.14-17.25 125.44-18.3L125.44-18.3Q125.14-18.8 124.34-19.4 123.54-20 121.99-20L121.99-20Q120.49-20 119.66-19.4 118.84-18.8 118.49-18.3L118.49-18.3Q117.84-17.25 117.74-15.85 117.64-14.45 117.64-13.35L117.64-13.35Z" opacity="1" transform="matrix(1,0,0,1,0,0)" fill="#ffffff" class="wordmark-text-0" data-fill-palette-color="quaternary" id="text-0"></path></svg></g></svg></g><g transform="matrix(1,0,0,1,0,145.76916678404558)"><svg viewBox="0 0 395.52 36.36965517241379" height="36.36965517241379" width="395.52"><g transform="matrix(1,0,0,1,0,0)"><svg width="395.52" viewBox="4.85 -37.6 521.9499999999999 48" height="36.36965517241379" data-palette-color="#0a1033"><path d="M14.95 0L6.4 0Q4.85 0 4.85-1.5L4.85-1.5 4.85-33.5Q4.85-35 6.4-35L6.4-35 15.3-35Q19.05-35 21.53-33.88 24-32.75 25.25-30.78 26.5-28.8 26.5-26.15L26.5-26.15Q26.5-24.45 25.73-22.83 24.95-21.2 23.7-20.03 22.45-18.85 21-18.45L21-18.45 21-18.25Q23.2-17.75 24.75-16.6 26.3-15.45 27.15-13.78 28-12.1 28-10.05L28-10.05Q28-6.6 26.5-4.38 25-2.15 22.08-1.07 19.15 0 14.95 0L14.95 0ZM9.35-16L9.35-3.8 16.55-3.8Q19.8-3.8 21.63-5.45 23.45-7.1 23.45-10L23.45-10Q23.45-12.8 21.5-14.4 19.55-16 15.7-16L15.7-16 9.35-16ZM9.35-31.2L9.35-19.8 15.05-19.8Q18.1-19.8 20.03-21.55 21.95-23.3 21.95-25.75L21.95-25.75Q21.95-28.55 20.28-29.88 18.6-31.2 14.85-31.2L14.85-31.2 9.35-31.2ZM44.3 0.3L44.3 0.3Q38.55 0.3 35.47-2.7 32.4-5.7 32.4-12.95L32.4-12.95Q32.4-17.3 33.75-20.3 35.1-23.3 37.72-24.88 40.35-26.45 44.1-26.45L44.1-26.45Q47.5-26.45 49.77-24.98 52.05-23.5 53.17-20.6 54.3-17.7 54.3-13.5L54.3-13.5Q54.3-13.05 54.05-12.55 53.8-12.05 53.4-11.7 53-11.35 52.55-11.35L52.55-11.35 36.8-11.35Q36.9-7.2 38.75-5.25 40.6-3.3 44.4-3.3L44.4-3.3Q46.8-3.3 48.47-3.85 50.15-4.4 51.12-4.95 52.1-5.5 52.35-5.5L52.35-5.5Q52.7-5.5 52.97-5.08 53.25-4.65 53.45-4.1 53.65-3.55 53.65-3.15L53.65-3.15Q53.65-2.7 52.92-2.13 52.2-1.55 50.92-0.98 49.65-0.4 47.95-0.05 46.25 0.3 44.3 0.3ZM36.8-14.95L36.8-14.95 50-14.95Q50-18.9 48.35-20.88 46.7-22.85 43.65-22.85L43.65-22.85Q41.45-22.85 39.95-21.88 38.45-20.9 37.65-19.15 36.85-17.4 36.8-14.95ZM66.5 0.45L66.5 0.45Q64.8 0.45 63.35 0.13 61.9-0.2 60.82-0.7 59.75-1.2 59.15-1.73 58.55-2.25 58.55-2.7L58.55-2.7Q58.55-3 58.85-3.6 59.15-4.2 59.55-4.7 59.95-5.2 60.3-5.2L60.3-5.2Q60.5-5.2 61.2-4.7 61.9-4.2 63.17-3.7 64.45-3.2 66.2-3.2L66.2-3.2Q68.59-3.2 69.84-4.15 71.09-5.1 71.09-6.9L71.09-6.9Q71.09-8.25 70.45-9.08 69.8-9.9 68.67-10.45 67.55-11 66.09-11.45L66.09-11.45Q64.8-11.9 63.55-12.45 62.3-13 61.3-13.85 60.3-14.7 59.72-16 59.15-17.3 59.15-19.25L59.15-19.25Q59.15-21.35 60.22-23 61.3-24.65 63.17-25.58 65.05-26.5 67.45-26.5L67.45-26.5Q68.75-26.5 69.92-26.33 71.09-26.15 72.02-25.85 72.95-25.55 73.5-25.15 74.05-24.75 74.05-24.35L74.05-24.35Q74.05-23.95 73.77-23.3 73.5-22.65 73.15-22.15 72.8-21.65 72.45-21.65L72.45-21.65Q72.25-21.65 71.09-22.3 69.95-22.95 67.9-22.95L67.9-22.95Q66.05-22.95 64.75-22.08 63.45-21.2 63.45-19.6L63.45-19.6Q63.45-18.65 63.8-18 64.15-17.35 65-16.82 65.84-16.3 67.34-15.8L67.34-15.8Q69.05-15.25 70.5-14.55 71.95-13.85 73.05-12.88 74.15-11.9 74.75-10.55 75.34-9.2 75.34-7.35L75.34-7.35Q75.34-5.1 74.17-3.35 73-1.6 71-0.58 69 0.45 66.5 0.45ZM88.64 0.3L88.64 0.3Q86.64 0.3 85.32-0.45 83.99-1.2 83.32-2.68 82.64-4.15 82.64-6.3L82.64-6.3 82.64-22.55 80.14-22.55Q79.14-22.55 79.14-24.05L79.14-24.05 79.14-24.65Q79.14-26.15 80.14-26.15L80.14-26.15 82.64-26.15 83.24-31.4Q83.34-31.95 83.72-32.23 84.09-32.5 84.79-32.5L84.79-32.5 85.19-32.5Q86.19-32.5 86.57-32.23 86.94-31.95 86.94-31.4L86.94-31.4 86.94-26.15 91.19-26.15Q92.19-26.15 92.19-24.65L92.19-24.65 92.19-24.05Q92.19-22.55 91.19-22.55L91.19-22.55 86.94-22.55 86.94-6.3Q86.94-4.7 87.47-4.05 87.99-3.4 89.29-3.4L89.29-3.4Q90.44-3.4 90.94-3.65 91.44-3.9 91.79-3.9L91.79-3.9Q92.04-3.9 92.22-3.58 92.39-3.25 92.47-2.8 92.54-2.35 92.57-1.95 92.59-1.55 92.59-1.4L92.59-1.4Q92.59-0.9 91.92-0.5 91.24-0.1 90.32 0.1 89.39 0.3 88.64 0.3ZM130.19 0L112.74 0Q111.19 0 111.19-1.5L111.19-1.5 111.19-33.5Q111.19-35 112.74-35L112.74-35 130.14-35Q131.14-35 131.14-33.5L131.14-33.5 131.14-32.7Q131.14-31.2 130.14-31.2L130.14-31.2 115.69-31.2 115.69-19.8 128.64-19.8Q129.64-19.8 129.64-18.3L129.64-18.3 129.64-17.5Q129.64-16 128.64-16L128.64-16 115.69-16 115.69-3.8 130.19-3.8Q131.19-3.8 131.19-2.3L131.19-2.3 131.19-1.5Q131.19 0 130.19 0L130.19 0ZM141.39 10.4L140.99 10.4Q140.19 10.4 139.76 10.18 139.34 9.95 139.34 9.6L139.34 9.6Q139.34 9.5 139.36 9.38 139.39 9.25 139.59 8.75L139.59 8.75 144.49-3 144.09 0.25 134.84-24.75Q134.79-24.85 134.74-25.05 134.69-25.25 134.69-25.4L134.69-25.4Q134.69-25.8 135.21-26.03 135.74-26.25 136.84-26.25L136.84-26.25 137.09-26.25Q137.84-26.25 138.39-26.08 138.94-25.9 139.09-25.45L139.09-25.45 145.74-5.95 145.94-5.95 152.79-25.45Q152.94-25.9 153.49-26.08 154.04-26.25 154.84-26.25L154.84-26.25 154.99-26.25Q155.99-26.25 156.41-26.03 156.84-25.8 156.84-25.4L156.84-25.4Q156.84-25.25 156.81-25.1 156.79-24.95 156.69-24.7L156.69-24.7 143.74 9.35Q143.54 9.9 142.91 10.15 142.29 10.4 141.39 10.4L141.39 10.4ZM171.83 0.3L171.83 0.3Q166.08 0.3 163.01-2.7 159.93-5.7 159.93-12.95L159.93-12.95Q159.93-17.3 161.28-20.3 162.63-23.3 165.26-24.88 167.88-26.45 171.63-26.45L171.63-26.45Q175.03-26.45 177.31-24.98 179.58-23.5 180.71-20.6 181.83-17.7 181.83-13.5L181.83-13.5Q181.83-13.05 181.58-12.55 181.33-12.05 180.93-11.7 180.53-11.35 180.08-11.35L180.08-11.35 164.33-11.35Q164.43-7.2 166.28-5.25 168.13-3.3 171.93-3.3L171.93-3.3Q174.33-3.3 176.01-3.85 177.68-4.4 178.66-4.95 179.63-5.5 179.88-5.5L179.88-5.5Q180.23-5.5 180.51-5.08 180.78-4.65 180.98-4.1 181.18-3.55 181.18-3.15L181.18-3.15Q181.18-2.7 180.46-2.13 179.73-1.55 178.46-0.98 177.18-0.4 175.48-0.05 173.78 0.3 171.83 0.3ZM164.33-14.95L164.33-14.95 177.53-14.95Q177.53-18.9 175.88-20.88 174.23-22.85 171.18-22.85L171.18-22.85Q168.98-22.85 167.48-21.88 165.98-20.9 165.18-19.15 164.38-17.4 164.33-14.95ZM203.43 0.1L203.03 0.1Q201.93 0.1 201.45-0.2 200.98-0.5 200.98-1L200.98-1 200.98-33.5Q200.98-35 202.53-35L202.53-35 217.88-35Q218.83-35 218.83-33.5L218.83-33.5 218.83-32.7Q218.83-31.2 217.88-31.2L217.88-31.2 205.48-31.2 205.48-18.55 217.08-18.55Q218.08-18.55 218.08-17.05L218.08-17.05 218.08-16.25Q218.08-14.75 217.08-14.75L217.08-14.75 205.48-14.75 205.48-1Q205.48-0.5 205.03-0.2 204.58 0.1 203.43 0.1L203.43 0.1ZM226.98 0.1L226.78 0.1Q225.73 0.1 225.25-0.2 224.78-0.5 224.78-1L224.78-1 224.78-18.65Q224.78-20.7 224.65-22 224.53-23.3 224.4-24.05 224.28-24.8 224.28-25.1L224.28-25.1Q224.28-25.35 224.58-25.55 224.88-25.75 225.33-25.88 225.78-26 226.28-26.05 226.78-26.1 227.18-26.1L227.18-26.1Q227.63-26.1 227.9-25.78 228.18-25.45 228.4-24.7 228.63-23.95 228.83-22.7L228.83-22.7Q229.68-24 230.75-24.83 231.83-25.65 233.08-26.05 234.33-26.45 235.78-26.45L235.78-26.45Q236.63-26.45 237.05-26.05 237.48-25.65 237.48-24.85L237.48-24.85Q237.48-24.3 237.4-23.78 237.33-23.25 237.18-22.85 237.03-22.45 236.85-22.2 236.68-21.95 236.43-21.95L236.43-21.95Q236.08-21.95 235.55-22.15 235.03-22.35 233.88-22.35L233.88-22.35Q232.18-22.35 230.85-21.4 229.53-20.45 229.08-18.8L229.08-18.8 229.08-1Q229.08-0.5 228.58-0.2 228.08 0.1 226.98 0.1L226.98 0.1ZM248.57 0.3L248.57 0.3Q244.92 0.3 242.47-1.53 240.02-3.35 240.02-7.2L240.02-7.2Q240.02-9.75 240.87-11.5 241.72-13.25 243.65-14.3 245.57-15.35 248.75-15.83 251.92-16.3 256.52-16.3L256.52-16.3 256.52-18.65Q256.52-19.8 256.02-20.75 255.52-21.7 254.35-22.28 253.17-22.85 251.12-22.85L251.12-22.85Q248.87-22.85 247.15-22.35 245.42-21.85 244.35-21.35 243.27-20.85 242.92-20.85L242.92-20.85Q242.67-20.85 242.45-21.1 242.22-21.35 242.02-21.78 241.82-22.2 241.7-22.65 241.57-23.1 241.57-23.45L241.57-23.45Q241.57-23.85 242.42-24.35 243.27-24.85 244.7-25.33 246.12-25.8 247.85-26.13 249.57-26.45 251.32-26.45L251.32-26.45Q253.57-26.45 255.35-25.93 257.12-25.4 258.32-24.38 259.52-23.35 260.17-21.9 260.82-20.45 260.82-18.6L260.82-18.6 260.82-7.5Q260.82-5.45 260.95-4.15 261.07-2.85 261.2-2.13 261.32-1.4 261.32-1.05L261.32-1.05Q261.32-0.8 261.02-0.6 260.72-0.4 260.27-0.28 259.82-0.15 259.32-0.08 258.82 0 258.42 0L258.42 0Q257.97 0 257.72-0.33 257.47-0.65 257.27-1.43 257.07-2.2 256.82-3.45L256.82-3.45Q255.92-2.4 254.7-1.55 253.47-0.7 251.95-0.2 250.42 0.3 248.57 0.3ZM248.77-3.35L248.77-3.35Q250.57-3.35 251.95-3.85 253.32-4.35 254.45-5.13 255.57-5.9 256.52-6.8L256.52-6.8 256.52-12.7Q252.82-12.7 250.47-12.43 248.12-12.15 246.82-11.55 245.52-10.95 245.02-9.93 244.52-8.9 244.52-7.45L244.52-7.45Q244.52-5.45 245.6-4.4 246.67-3.35 248.77-3.35ZM271.67 0.1L271.27 0.1Q270.17 0.1 269.75-0.2 269.32-0.5 269.32-1L269.32-1 269.32-18.65Q269.32-20.7 269.2-22 269.07-23.3 268.95-24.05 268.82-24.8 268.82-25.1L268.82-25.1Q268.82-25.35 269.12-25.55 269.42-25.75 269.87-25.88 270.32-26 270.82-26.05 271.32-26.1 271.72-26.1L271.72-26.1Q272.17-26.1 272.42-25.78 272.67-25.45 272.87-24.73 273.07-24 273.32-22.7L273.32-22.7Q274.32-23.9 275.52-24.73 276.72-25.55 278.07-26 279.42-26.45 280.77-26.45L280.77-26.45Q282.47-26.45 283.85-25.98 285.22-25.5 286.27-24.6 287.32-23.7 287.97-22.3L287.97-22.3Q288.97-23.6 290.25-24.53 291.52-25.45 292.95-25.95 294.37-26.45 295.77-26.45L295.77-26.45Q298.22-26.45 300-25.48 301.77-24.5 302.72-22.7 303.67-20.9 303.67-18.35L303.67-18.35 303.67-1Q303.67-0.5 303.25-0.2 302.82 0.1 301.72 0.1L301.72 0.1 301.32 0.1Q300.22 0.1 299.8-0.2 299.37-0.5 299.37-1L299.37-1 299.37-17.95Q299.37-20.35 298.17-21.58 296.97-22.8 294.57-22.8L294.57-22.8Q293.72-22.8 292.87-22.55 292.02-22.3 291.22-21.8 290.42-21.3 289.67-20.6 288.92-19.9 288.32-18.95L288.32-18.95 288.27-20.65Q288.57-20.1 288.62-19.5 288.67-18.9 288.67-18.35L288.67-18.35 288.67-1Q288.67-0.5 288.25-0.2 287.82 0.1 286.72 0.1L286.72 0.1 286.32 0.1Q285.22 0.1 284.8-0.2 284.37-0.5 284.37-1L284.37-1 284.37-17.95Q284.37-20.35 283.17-21.58 281.97-22.8 279.57-22.8L279.57-22.8Q278.42-22.8 277.32-22.38 276.22-21.95 275.27-21.18 274.32-20.4 273.62-19.35L273.62-19.35 273.62-1Q273.62-0.5 273.2-0.2 272.77 0.1 271.67 0.1L271.67 0.1ZM321.87 0.3L321.87 0.3Q316.12 0.3 313.04-2.7 309.97-5.7 309.97-12.95L309.97-12.95Q309.97-17.3 311.32-20.3 312.67-23.3 315.29-24.88 317.92-26.45 321.67-26.45L321.67-26.45Q325.07-26.45 327.34-24.98 329.62-23.5 330.74-20.6 331.87-17.7 331.87-13.5L331.87-13.5Q331.87-13.05 331.62-12.55 331.37-12.05 330.97-11.7 330.57-11.35 330.12-11.35L330.12-11.35 314.37-11.35Q314.47-7.2 316.32-5.25 318.17-3.3 321.97-3.3L321.97-3.3Q324.37-3.3 326.04-3.85 327.72-4.4 328.69-4.95 329.67-5.5 329.92-5.5L329.92-5.5Q330.27-5.5 330.54-5.08 330.82-4.65 331.02-4.1 331.22-3.55 331.22-3.15L331.22-3.15Q331.22-2.7 330.49-2.13 329.77-1.55 328.49-0.98 327.22-0.4 325.52-0.05 323.82 0.3 321.87 0.3ZM314.37-14.95L314.37-14.95 327.57-14.95Q327.57-18.9 325.92-20.88 324.27-22.85 321.22-22.85L321.22-22.85Q319.02-22.85 317.52-21.88 316.02-20.9 315.22-19.15 314.42-17.4 314.37-14.95ZM364.41 0.3L364.41 0.3Q356.91 0.3 352.96-4.28 349.01-8.85 349.01-17.6L349.01-17.6Q349.01-26.4 352.96-30.85 356.91-35.3 364.41-35.3L364.41-35.3Q371.96-35.3 375.91-30.85 379.86-26.4 379.86-17.6L379.86-17.6Q379.86-8.85 375.91-4.28 371.96 0.3 364.41 0.3ZM364.41-3.5L364.41-3.5Q369.71-3.5 372.51-7.1 375.31-10.7 375.31-17.6L375.31-17.6Q375.31-24.5 372.51-28 369.71-31.5 364.41-31.5L364.41-31.5Q359.11-31.5 356.34-28 353.56-24.5 353.56-17.6L353.56-17.6Q353.56-10.7 356.34-7.1 359.11-3.5 364.41-3.5ZM389.56 10.4L389.16 10.4Q388.06 10.4 387.64 10.1 387.21 9.8 387.21 9.3L387.21 9.3 387.21-18.65Q387.21-20.7 387.09-22 386.96-23.3 386.84-24.05 386.71-24.8 386.71-25.1L386.71-25.1Q386.71-25.35 387.01-25.55 387.31-25.75 387.76-25.88 388.21-26 388.71-26.05 389.21-26.1 389.61-26.1L389.61-26.1Q390.06-26.1 390.29-25.83 390.51-25.55 390.71-24.9 390.91-24.25 391.11-23.15L391.11-23.15Q392.31-24.3 393.59-25.03 394.86-25.75 396.21-26.1 397.56-26.45 398.91-26.45L398.91-26.45Q402.06-26.45 404.21-24.93 406.36-23.4 407.49-20.48 408.61-17.55 408.61-13.25L408.61-13.25Q408.61-9.3 407.46-6.25 406.31-3.2 404.16-1.45 402.01 0.3 399.01 0.3L399.01 0.3Q397.66 0.3 396.29-0.1 394.91-0.5 393.69-1.18 392.46-1.85 391.51-2.75L391.51-2.75 391.51 9.3Q391.51 9.8 391.09 10.1 390.66 10.4 389.56 10.4L389.56 10.4ZM398.16-3.35L398.16-3.35Q401.06-3.35 402.64-5.95 404.21-8.55 404.21-13.25L404.21-13.25Q404.21-18.2 402.41-20.48 400.61-22.75 397.61-22.75L397.61-22.75Q396.01-22.75 394.44-22 392.86-21.25 391.51-19.75L391.51-19.75 391.51-6.8Q393.06-5.1 394.79-4.23 396.51-3.35 398.16-3.35ZM422.76 0.3L422.76 0.3Q420.76 0.3 419.43-0.45 418.11-1.2 417.43-2.68 416.76-4.15 416.76-6.3L416.76-6.3 416.76-22.55 414.26-22.55Q413.26-22.55 413.26-24.05L413.26-24.05 413.26-24.65Q413.26-26.15 414.26-26.15L414.26-26.15 416.76-26.15 417.36-31.4Q417.46-31.95 417.83-32.23 418.21-32.5 418.91-32.5L418.91-32.5 419.31-32.5Q420.31-32.5 420.68-32.23 421.06-31.95 421.06-31.4L421.06-31.4 421.06-26.15 425.31-26.15Q426.31-26.15 426.31-24.65L426.31-24.65 426.31-24.05Q426.31-22.55 425.31-22.55L425.31-22.55 421.06-22.55 421.06-6.3Q421.06-4.7 421.58-4.05 422.11-3.4 423.41-3.4L423.41-3.4Q424.56-3.4 425.06-3.65 425.56-3.9 425.91-3.9L425.91-3.9Q426.16-3.9 426.33-3.58 426.51-3.25 426.58-2.8 426.66-2.35 426.68-1.95 426.71-1.55 426.71-1.4L426.71-1.4Q426.71-0.9 426.03-0.5 425.36-0.1 424.43 0.1 423.51 0.3 422.76 0.3ZM435.31 0.1L434.91 0.1Q433.81 0.1 433.38-0.2 432.96-0.5 432.96-1L432.96-1 432.96-25.15Q432.96-25.7 433.38-25.98 433.81-26.25 434.91-26.25L434.91-26.25 435.31-26.25Q436.41-26.25 436.83-25.98 437.26-25.7 437.26-25.15L437.26-25.15 437.26-1Q437.26-0.5 436.83-0.2 436.41 0.1 435.31 0.1L435.31 0.1ZM435.11-29.75L435.11-29.75Q433.91-29.75 433.41-30.05 432.91-30.35 432.91-30.85L432.91-30.85 432.91-33.85Q432.91-34.35 433.41-34.65 433.91-34.95 435.11-34.95L435.11-34.95Q436.31-34.95 436.81-34.68 437.31-34.4 437.31-33.85L437.31-33.85 437.31-30.85Q437.31-30.35 436.81-30.05 436.31-29.75 435.11-29.75ZM456.35 0.3L456.35 0.3Q450.55 0.3 447.5-2.7 444.45-5.7 444.45-12.95L444.45-12.95Q444.45-19.45 447.5-22.95 450.55-26.45 456.3-26.45L456.3-26.45Q457.8-26.45 459.15-26.23 460.5-26 461.55-25.6 462.6-25.2 463.23-24.75 463.85-24.3 463.85-23.85L463.85-23.85Q463.85-23.45 463.65-22.88 463.45-22.3 463.15-21.88 462.85-21.45 462.5-21.45L462.5-21.45Q462.15-21.45 461.33-21.8 460.5-22.15 459.2-22.5 457.9-22.85 456.05-22.85L456.05-22.85Q452.5-22.85 450.68-20.4 448.85-17.95 448.85-13.05L448.85-13.05Q448.85-8 450.68-5.65 452.5-3.3 456.45-3.3L456.45-3.3Q458.15-3.3 459.5-3.75 460.85-4.2 461.75-4.65 462.65-5.1 462.95-5.1L462.95-5.1Q463.3-5.1 463.58-4.67 463.85-4.25 464.05-3.7 464.25-3.15 464.25-2.75L464.25-2.75Q464.25-2.3 463.53-1.75 462.8-1.2 461.65-0.75 460.5-0.3 459.1 0 457.7 0.3 456.35 0.3ZM476.95 0.3L476.95 0.3Q473.3 0.3 470.85-1.53 468.4-3.35 468.4-7.2L468.4-7.2Q468.4-9.75 469.25-11.5 470.1-13.25 472.03-14.3 473.95-15.35 477.13-15.83 480.3-16.3 484.9-16.3L484.9-16.3 484.9-18.65Q484.9-19.8 484.4-20.75 483.9-21.7 482.73-22.28 481.55-22.85 479.5-22.85L479.5-22.85Q477.25-22.85 475.53-22.35 473.8-21.85 472.73-21.35 471.65-20.85 471.3-20.85L471.3-20.85Q471.05-20.85 470.83-21.1 470.6-21.35 470.4-21.78 470.2-22.2 470.08-22.65 469.95-23.1 469.95-23.45L469.95-23.45Q469.95-23.85 470.8-24.35 471.65-24.85 473.08-25.33 474.5-25.8 476.23-26.13 477.95-26.45 479.7-26.45L479.7-26.45Q481.95-26.45 483.73-25.93 485.5-25.4 486.7-24.38 487.9-23.35 488.55-21.9 489.2-20.45 489.2-18.6L489.2-18.6 489.2-7.5Q489.2-5.45 489.33-4.15 489.45-2.85 489.58-2.13 489.7-1.4 489.7-1.05L489.7-1.05Q489.7-0.8 489.4-0.6 489.1-0.4 488.65-0.28 488.2-0.15 487.7-0.08 487.2 0 486.8 0L486.8 0Q486.35 0 486.1-0.33 485.85-0.65 485.65-1.43 485.45-2.2 485.2-3.45L485.2-3.45Q484.3-2.4 483.08-1.55 481.85-0.7 480.33-0.2 478.8 0.3 476.95 0.3ZM477.15-3.35L477.15-3.35Q478.95-3.35 480.33-3.85 481.7-4.35 482.83-5.13 483.95-5.9 484.9-6.8L484.9-6.8 484.9-12.7Q481.2-12.7 478.85-12.43 476.5-12.15 475.2-11.55 473.9-10.95 473.4-9.93 472.9-8.9 472.9-7.45L472.9-7.45Q472.9-5.45 473.98-4.4 475.05-3.35 477.15-3.35ZM503.3 0.3L503.3 0.3Q501.3 0.3 499.97-0.45 498.65-1.2 497.97-2.68 497.3-4.15 497.3-6.3L497.3-6.3 497.3-36.5Q497.3-37.05 497.72-37.33 498.15-37.6 499.25-37.6L499.25-37.6 499.65-37.6Q500.75-37.6 501.17-37.33 501.6-37.05 501.6-36.5L501.6-36.5 501.6-6.3Q501.6-4.6 502.12-4 502.65-3.4 503.95-3.4L503.95-3.4Q505.1-3.4 505.6-3.65 506.1-3.9 506.45-3.9L506.45-3.9Q506.7-3.9 506.87-3.58 507.05-3.25 507.12-2.8 507.2-2.35 507.22-1.95 507.25-1.55 507.25-1.4L507.25-1.4Q507.25-0.9 506.57-0.5 505.9-0.1 504.97 0.1 504.05 0.3 503.3 0.3ZM517.95 0.45L517.95 0.45Q516.25 0.45 514.8 0.13 513.35-0.2 512.27-0.7 511.2-1.2 510.6-1.73 510-2.25 510-2.7L510-2.7Q510-3 510.3-3.6 510.6-4.2 511-4.7 511.4-5.2 511.75-5.2L511.75-5.2Q511.95-5.2 512.65-4.7 513.35-4.2 514.62-3.7 515.9-3.2 517.65-3.2L517.65-3.2Q520.05-3.2 521.3-4.15 522.55-5.1 522.55-6.9L522.55-6.9Q522.55-8.25 521.9-9.08 521.25-9.9 520.12-10.45 519-11 517.55-11.45L517.55-11.45Q516.25-11.9 515-12.45 513.75-13 512.75-13.85 511.75-14.7 511.17-16 510.6-17.3 510.6-19.25L510.6-19.25Q510.6-21.35 511.67-23 512.75-24.65 514.62-25.58 516.5-26.5 518.9-26.5L518.9-26.5Q520.2-26.5 521.37-26.33 522.55-26.15 523.47-25.85 524.4-25.55 524.95-25.15 525.5-24.75 525.5-24.35L525.5-24.35Q525.5-23.95 525.22-23.3 524.95-22.65 524.6-22.15 524.25-21.65 523.9-21.65L523.9-21.65Q523.7-21.65 522.55-22.3 521.4-22.95 519.35-22.95L519.35-22.95Q517.5-22.95 516.2-22.08 514.9-21.2 514.9-19.6L514.9-19.6Q514.9-18.65 515.25-18 515.6-17.35 516.45-16.82 517.3-16.3 518.8-15.8L518.8-15.8Q520.5-15.25 521.95-14.55 523.4-13.85 524.5-12.88 525.6-11.9 526.2-10.55 526.8-9.2 526.8-7.35L526.8-7.35Q526.8-5.1 525.62-3.35 524.45-1.6 522.45-0.58 520.45 0.45 517.95 0.45Z" opacity="1" transform="matrix(1,0,0,1,0,0)" fill="#0a1033" class="slogan-text-1" data-fill-palette-color="secondary" id="text-1"></path></svg></g></svg></g></svg></g></svg></g><g></g></svg></g><defs></defs></svg><rect width="395.52" height="182.13882195645937" fill="none" stroke="none" visibility="hidden"></rect></g></svg></g></svg>